<?xml version="1.0" encoding="UTF-8"?>
<svg id="Calque_1" data-name="Calque 1" xmlns="http://www.w3.org/2000/svg" viewBox="0 0 732 602">
  <defs>
    <style>
      .cls-1 {
        fill: #fff;
      }
    </style>
  </defs>
  <rect class="cls-1" width="599" height="602"/>
  <path d="M214,238l-4.96.04-1.67,4.83-13.36.13-2-8.99h22c1.01-1.02-3.72-16.66,6.85-9.36l.14,9.36h35.01s-.98,3.52-.98,3.52l-6.03.47c.62,3.84-.84,9.86-.01,13.3.32,1.33,3.41,1.08,3.03,3.19l-3-.49v1.98c10.91,4.09-4.51,12.63-5,3.02l4-.49c-4.56-1.92-6.32-6.31,0-6.51v-14h-27v56h17v-19h17v19c2.16-.12,6.04.86,6.86-1.64l2.13-33.37,21.01,1-3.01,42.01c4.94-1.37,4,4.23,9,3v-25.5l1.5-1.5h23l1.5,1.5v29.5h9.01s.93-11.56.93-11.56l14.06-.44v18h153.5c.4,0,6.21,3.37,6.93,4.07,7.92,7.86.97,19.6-8.9,20.95l-375.93-.11c-11.57-1.3-16.52-15.42-6.55-22.37,1.74-1.21,5.22-1.39,5.83-3.17,1.51-14.21-1.54-31.05.08-44.92.17-1.46.12-2.57,1.55-3.45h15l1.5,1.5v22.5h8v-30h17v28.5l6.57,2.43.42,6.08h5.01v-48.51l1.5-1.5h17l1.5,1.5v31.5h5.01s.03-11.97.03-11.97l10.96-1.04v13.01s4.01,0,4.01,0v14h3v-56ZM110.3,332.71c1.96,2.4,9.01,3.11,12.16,3.33,70.56,4.99,146.93-3.87,218.09,0l153.48-.52c7.95-2.05,8.91-13.4.81-15.86l-380.56.11c-5.34,1.13-7.09,9.12-3.97,12.94Z"/>
  <path class="cls-1" d="M110.3,332.71c-3.11-3.82-1.37-11.81,3.97-12.94l380.56-.11c8.1,2.46,7.14,13.81-.81,15.86l-153.48.52c-71.17-3.88-147.53,4.98-218.09,0-3.14-.22-10.2-.93-12.16-3.33ZM111.27,331.74c1.18,1.26,5.3,2.32,7.18,2.31h224.1c9.74.35,10.62-12.3.97-13.08l-230.28.76c-3.4,1.5-4.37,7.45-1.97,10.01Z"/>
  <path d="M111.27,331.74c-2.39-2.55-1.43-8.51,1.97-10.01l230.28-.76c9.65.77,8.76,13.42-.97,13.07H118.45c-1.88.02-6-1.04-7.18-2.3Z"/>
  <rect class="cls-1" x="730" y="77" width="2" height="0"/>
</svg>